<?xml version="1.0" encoding="utf-8"?>
<!-- Generator: Adobe Illustrator 27.0.0, SVG Export Plug-In . SVG Version: 6.00 Build 0)  -->
<svg version="1.1" id="Layer_1" xmlns="http://www.w3.org/2000/svg" xmlns:xlink="http://www.w3.org/1999/xlink" x="0px" y="0px"
	 viewBox="0 0 375 170" style="enable-background:new 0 0 375 170;" xml:space="preserve">
<style type="text/css">
	.st0{fill:#3F3E40;}
	.st1{fill:#D03059;}
</style>
<path class="st0" d="M2.5,110.5h3.6v18.1H2.5V110.5z"/>
<path class="st0" d="M13.4,113.8h2.2l10.8,9.9v-9.9h2.8v14.9H27l-10.8-10v10h-2.8V113.8z"/>
<path class="st0" d="M38.3,116.5v3.1h8.3c2.5,0,3.3,0.7,3.3,3.5v2c0,2.8-0.8,3.5-3.3,3.5h-8.3c-2.5,0-3.3-0.7-3.3-3.5v-0.4l2.8-0.6
	v1.7h9.4v-3.4h-8.3c-2.5,0-3.3-0.7-3.3-3.5v-1.7c0-2.8,0.8-3.5,3.3-3.5h7.6c2.4,0,3.3,0.6,3.3,3.2v0.3L47,118v-1.6H38.3z"/>
<path class="st0" d="M55.7,113.8h11.5c2.1,0,3,0.8,3,2.9v3.3c0,2.1-0.9,2.9-3,2.9h-8.4v5.8h-3.1V113.8z M58.8,116.3v4h7.1
	c0.9,0,1.4-0.2,1.4-1.2v-1.5c0-1-0.5-1.2-1.4-1.2L58.8,116.3L58.8,116.3z"/>
<path class="st0" d="M75.1,113.8h3.1v14.9h-3.1V113.8z"/>
<path class="st0" d="M84.4,113.8h11.5c2.1,0,3,0.8,3,2.9v3.5c0,2-0.9,2.8-3,2.8h-1.7l6,5.6h-4.5l-5.3-5.6h-2.9v5.6h-3.1V113.8z
	 M87.4,116.3v4.1h7.1c0.9,0,1.4-0.2,1.4-1.2v-1.7c0-1-0.5-1.2-1.4-1.2H87.4z"/>
<path class="st0" d="M104.4,113.8h13.7v2.6h-10.5v3.2h6.2v2.5h-6.2v3.7h10.7v2.8h-13.8V113.8z"/>
<path class="st0" d="M123.2,113.8h8.6c5,0,7.6,2.8,7.6,7.4c0,5-2.8,7.5-8.4,7.5h-7.8L123.2,113.8L123.2,113.8z M130.3,125.9
	c3.9,0,5.9-1,5.9-4.9c0-3.1-1.5-4.5-4.4-4.5h-5.5v9.4H130.3z"/>
<path class="st0" d="M156.7,113.8h11.4c2.1,0,3,0.8,3,2.9v1.8c0,1.4-0.8,2.3-2.2,2.5c1.4,0.3,2.3,1.3,2.3,2.8v1.9
	c0,2-1.3,2.9-3.9,2.9h-10.6V113.8z M159.7,116.2v3.5h7c0.9,0,1.4-0.2,1.4-1.1v-1.4c0-0.9-0.4-1.1-1.4-1.1H159.7z M159.7,122.2v3.8h7
	c1.1,0,1.5-0.3,1.5-1.3v-1.1c0-1.1-0.5-1.3-1.5-1.3L159.7,122.2L159.7,122.2z"/>
<path class="st0" d="M180.1,122l-7-8.2h4.2l4.6,5.6l4.6-5.6h3.6l-6.9,8.1v6.8H180L180.1,122L180.1,122z"/>
<path class="st0" d="M208.8,116.5v3.1h8.3c2.5,0,3.3,0.7,3.3,3.5v2c0,2.8-0.8,3.5-3.3,3.5h-8.3c-2.5,0-3.3-0.7-3.3-3.5v-0.4l2.8-0.6
	v1.7h9.4v-3.4h-8.3c-2.5,0-3.3-0.7-3.3-3.5v-1.7c0-2.8,0.8-3.5,3.3-3.5h7.6c2.4,0,3.3,0.6,3.3,3.2v0.3l-2.7,0.7v-1.6H208.8z"/>
<path class="st0" d="M229.2,113.8h9.8c2.5,0,3.3,0.7,3.3,3.5v7.8c0,2.8-0.8,3.5-3.3,3.5h-9.8c-2.5,0-3.3-0.7-3.3-3.5v-7.8
	C225.9,114.5,226.7,113.8,229.2,113.8z M239.2,125.8v-9.3H229v9.3H239.2z"/>
<path class="st0" d="M248.1,113.8h3.1v12.1h10v2.8h-13.1L248.1,113.8L248.1,113.8z"/>
<path class="st0" d="M268.9,125.9h8.9v-12.1h3.1v11.3c0,2.8-0.8,3.5-3.3,3.5h-8.4c-2.5,0-3.3-0.7-3.3-3.5v-11.3h3.1V125.9z"/>
<path class="st0" d="M294.6,128.7h-3.1v-12.2h-6.2v-2.7h15.4v2.7h-6.1V128.7z"/>
<path class="st0" d="M305.3,113.8h3.1v14.9h-3.1V113.8z"/>
<path class="st0" d="M317.5,113.8h9.8c2.5,0,3.3,0.7,3.3,3.5v7.8c0,2.8-0.8,3.5-3.3,3.5h-9.8c-2.5,0-3.3-0.7-3.3-3.5v-7.8
	C314.2,114.5,315,113.8,317.5,113.8z M327.6,125.8v-9.3h-10.2v9.3H327.6z"/>
<path class="st0" d="M336.5,113.8h2.2l10.8,9.9v-9.9h2.8v14.9h-2.2l-10.8-10v10h-2.8V113.8z"/>
<path class="st0" d="M361.4,116.5v3.1h8.3c2.5,0,3.3,0.7,3.3,3.5v2c0,2.8-0.8,3.5-3.3,3.5h-8.3c-2.5,0-3.3-0.7-3.3-3.5v-0.4l2.8-0.6
	v1.7h9.4v-3.4H362c-2.5,0-3.3-0.7-3.3-3.5v-1.7c0-2.8,0.8-3.5,3.3-3.5h7.5c2.4,0,3.3,0.6,3.3,3.2v0.3l-2.7,0.7v-1.6H361.4z"/>
<path class="st1" d="M89.3,42.1H79.1v63.6h10.2V42.1z"/>
<path class="st1" d="M36.4,42.1h-9.2L2.3,105.7h10.2L36.4,42.1z"/>
<path class="st1" d="M33.3,58.6l8,21.7H25.2l-4.3,11.5h24.6l5.3,13.9h11.5l-24-60.4L33.3,58.6z"/>
<path class="st1" d="M133.4,61.3l-12.5-19.2h-13.6L127.2,71L133.4,61.3z"/>
<path class="st1" d="M136.2,83.4l14.6,22.3h13.9l-22.3-32.1L136.2,83.4z"/>
<path class="st0" d="M159.5,42.1l-12.7,3.1l-10.9,17l-0.9,1.4l-26.9,42h11.7h-1L159.5,42.1z"/>
<path class="st1" d="M329.4,42h-10.3v63.7h10.3V42z"/>
<path class="st1" d="M352,81.7h5.9c3.6,0,6.2-1,7.8-3c1.6-2,2.4-5.1,2.4-9.4v-15c0-4.3-0.8-7.5-2.4-9.4c-1.6-2-4.2-2.9-7.8-2.9
	h-25.2v11h20.6c1.8,0,3.1,0.4,3.8,1.1c0.7,0.8,1,2,1,3.9v7.6c0,1.9-0.3,3.2-1,4c-0.7,0.8-1.9,1.1-3.8,1.1h-20.5v10.9h6.8l18.3,24.1
	H373L352,81.7z"/>
<path class="st1" d="M176.9,42v11.4h20.8h10.6h12.8l10-11.4H176.9z"/>
<path class="st1" d="M208.2,56.5h-10.5v49.3h10.5V56.5z"/>
<path class="st1" d="M251.7,91.7V53.4h32.9l8.4-9.8c-1.7-1.1-4.1-1.6-7.2-1.6h-33.4c-4.4,0-7.4,1.1-8.9,3.2
	c-1.6,2.1-2.3,6.1-2.3,11.9v33.6c0,5.2,0.6,8.9,1.9,11.1L251.7,91.7z"/>
<path class="st1" d="M286.4,55.9v37.9h-32.5l-8.9,10.3c1.7,1.1,4.1,1.7,7.3,1.7h33.4c4.4,0,7.4-1.1,8.9-3.2
	c1.6-2.1,2.3-6.1,2.3-11.9V57.1c0-5.2-0.6-9-1.9-11.2L286.4,55.9z"/>
</svg>
